<svg width="101" height="67" viewBox="0 0 101 67" fill="none" xmlns="http://www.w3.org/2000/svg">
<g clip-path="url(#clip0_1_4)">
<path d="M19.212 38.936C18.804 38.792 18.492 38.54 18.276 38.18C18.06 37.82 17.952 37.412 17.952 36.956C17.952 36.38 18.12 35.828 18.456 35.3C18.792 34.748 19.236 34.376 19.788 34.184L35.844 28.604C36.132 28.508 36.42 28.46 36.708 28.46C37.212 28.46 37.608 28.628 37.896 28.964C38.184 29.3 38.328 29.708 38.328 30.188C38.328 30.644 38.184 31.076 37.896 31.484C37.632 31.868 37.224 32.156 36.672 32.348L24.072 36.596L35.592 40.88C36 41.024 36.312 41.252 36.528 41.564C36.744 41.876 36.852 42.212 36.852 42.572C36.852 43.124 36.648 43.628 36.24 44.084C35.856 44.516 35.364 44.732 34.764 44.732C34.5 44.732 34.212 44.672 33.9 44.552L19.212 38.936ZM42.619 47.18C42.067 47.18 41.575 46.988 41.143 46.604C40.735 46.196 40.531 45.668 40.531 45.02C40.531 44.492 40.699 43.916 41.035 43.292L56.119 14.96C56.407 14.408 56.731 14 57.091 13.736C57.475 13.472 57.859 13.34 58.243 13.34C58.795 13.34 59.263 13.568 59.647 14.024C60.055 14.456 60.259 14.996 60.259 15.644C60.259 16.172 60.127 16.664 59.863 17.12L44.455 46.028C44.239 46.412 43.963 46.7 43.627 46.892C43.315 47.084 42.979 47.18 42.619 47.18ZM63.4194 44.552C63.1314 44.648 62.8434 44.696 62.5554 44.696C62.0514 44.696 61.6554 44.528 61.3674 44.192C61.0794 43.856 60.9354 43.448 60.9354 42.968C60.9354 42.512 61.0674 42.092 61.3314 41.708C61.6194 41.3 62.0394 41 62.5914 40.808L75.1914 36.56L63.6714 32.276C63.2634 32.132 62.9514 31.904 62.7354 31.592C62.5194 31.28 62.4114 30.944 62.4114 30.584C62.4114 30.032 62.6034 29.54 62.9874 29.108C63.3954 28.652 63.8994 28.424 64.4994 28.424C64.7634 28.424 65.0514 28.484 65.3634 28.604L80.0514 34.22C80.4594 34.364 80.7714 34.616 80.9874 34.976C81.2034 35.336 81.3114 35.744 81.3114 36.2C81.3114 36.776 81.1434 37.34 80.8074 37.892C80.4714 38.42 80.0274 38.78 79.4754 38.972L63.4194 44.552Z" fill="#776CBD"/>
</g>
<defs>
<clipPath id="clip0_1_4">
<rect width="101" height="67" fill="white"/>
</clipPath>
</defs>
</svg>
